{
	"patcher" : 	{
		"fileversion" : 1,
		"appversion" : 		{
			"major" : 7,
			"minor" : 3,
			"revision" : 4,
			"architecture" : "x86",
			"modernui" : 1
		}
,
		"rect" : [ 82.0, 79.0, 702.0, 782.0 ],
		"bglocked" : 0,
		"openinpresentation" : 0,
		"default_fontsize" : 12.0,
		"default_fontface" : 0,
		"default_fontname" : "Arial",
		"gridonopen" : 1,
		"gridsize" : [ 15.0, 15.0 ],
		"gridsnaponopen" : 1,
		"objectsnaponopen" : 1,
		"statusbarvisible" : 2,
		"toolbarvisible" : 1,
		"lefttoolbarpinned" : 0,
		"toptoolbarpinned" : 0,
		"righttoolbarpinned" : 0,
		"bottomtoolbarpinned" : 0,
		"toolbars_unpinned_last_save" : 0,
		"tallnewobj" : 0,
		"boxanimatetime" : 200,
		"enablehscroll" : 1,
		"enablevscroll" : 1,
		"devicewidth" : 0.0,
		"description" : "",
		"digest" : "",
		"tags" : "",
		"style" : "",
		"subpatcher_template" : "",
		"boxes" : [ 			{
				"box" : 				{
					"arrows" : 1,
					"border" : 3.0,
					"id" : "obj-65",
					"justification" : 1,
					"linecolor" : [ 0.784314, 0.145098, 0.023529, 1.0 ],
					"maxclass" : "live.line",
					"numinlets" : 1,
					"numoutlets" : 0,
					"patching_rect" : [ 636.333252, 671.333313, 51.0, 34.0 ],
					"presentation_rect" : [ 379.666565, 753.333374, 0.0, 0.0 ]
				}

			}
, 			{
				"box" : 				{
					"arrows" : 1,
					"border" : 3.0,
					"id" : "obj-64",
					"justification" : 1,
					"linecolor" : [ 0.784314, 0.145098, 0.023529, 1.0 ],
					"maxclass" : "live.line",
					"numinlets" : 1,
					"numoutlets" : 0,
					"patching_rect" : [ 636.333252, 633.666687, 51.0, 34.0 ],
					"presentation_rect" : [ 379.666565, 716.333313, 0.0, 0.0 ]
				}

			}
, 			{
				"box" : 				{
					"arrows" : 2,
					"border" : 3.0,
					"id" : "obj-63",
					"justification" : 1,
					"linecolor" : [ 0.784314, 0.145098, 0.023529, 1.0 ],
					"maxclass" : "live.line",
					"numinlets" : 1,
					"numoutlets" : 0,
					"patching_rect" : [ 453.499969, 507.999969, 51.0, 34.0 ],
					"presentation_rect" : [ 366.0, 449.999969, 0.0, 0.0 ]
				}

			}
, 			{
				"box" : 				{
					"fontname" : "Lato",
					"fontsize" : 13.924412,
					"id" : "obj-62",
					"maxclass" : "comment",
					"numinlets" : 1,
					"numoutlets" : 0,
					"patching_rect" : [ 288.999908, 507.999969, 162.333344, 23.0 ],
					"presentation_rect" : [ 271.0, 524.666626, 0.0, 0.0 ],
					"style" : "",
					"text" : "[toggle] to choose gate ",
					"textcolor" : [ 0.784314, 0.145098, 0.023529, 1.0 ]
				}

			}
, 			{
				"box" : 				{
					"arrows" : 1,
					"border" : 3.0,
					"id" : "obj-61",
					"justification" : 1,
					"linecolor" : [ 0.784314, 0.145098, 0.023529, 1.0 ],
					"maxclass" : "live.line",
					"numinlets" : 1,
					"numoutlets" : 0,
					"patching_rect" : [ 624.333252, 549.0, 51.0, 34.0 ],
					"presentation_rect" : [ 507.333344, 546.0, 0.0, 0.0 ]
				}

			}
, 			{
				"box" : 				{
					"arrows" : 1,
					"border" : 3.0,
					"id" : "obj-60",
					"justification" : 1,
					"linecolor" : [ 0.784314, 0.145098, 0.023529, 1.0 ],
					"maxclass" : "live.line",
					"numinlets" : 1,
					"numoutlets" : 0,
					"patching_rect" : [ 602.833313, 471.333344, 51.0, 34.0 ],
					"presentation_rect" : [ 572.666687, 470.999969, 0.0, 0.0 ]
				}

			}
, 			{
				"box" : 				{
					"arrows" : 1,
					"border" : 3.0,
					"id" : "obj-59",
					"justification" : 1,
					"linecolor" : [ 0.784314, 0.145098, 0.023529, 1.0 ],
					"maxclass" : "live.line",
					"numinlets" : 1,
					"numoutlets" : 0,
					"patching_rect" : [ 607.166626, 281.666656, 51.0, 34.0 ],
					"presentation_rect" : [ 577.0, 281.0, 0.0, 0.0 ]
				}

			}
, 			{
				"box" : 				{
					"arrows" : 1,
					"border" : 3.0,
					"id" : "obj-57",
					"justification" : 1,
					"linecolor" : [ 0.784314, 0.145098, 0.023529, 1.0 ],
					"maxclass" : "live.line",
					"numinlets" : 1,
					"numoutlets" : 0,
					"patching_rect" : [ 607.166626, 341.0, 51.0, 34.0 ],
					"presentation_rect" : [ 576.666687, 341.666656, 0.0, 0.0 ]
				}

			}
, 			{
				"box" : 				{
					"fontname" : "Lato",
					"fontsize" : 13.924412,
					"id" : "obj-56",
					"linecount" : 2,
					"maxclass" : "comment",
					"numinlets" : 1,
					"numoutlets" : 0,
					"patching_rect" : [ 659.166626, 468.333344, 172.0, 40.0 ],
					"presentation_rect" : [ 583.0, 468.999969, 0.0, 0.0 ],
					"style" : "",
					"text" : "[join2] to pack the x y coordinates of the matrix",
					"textcolor" : [ 0.784314, 0.145098, 0.023529, 1.0 ]
				}

			}
, 			{
				"box" : 				{
					"fontname" : "Lato",
					"fontsize" : 13.924412,
					"id" : "obj-55",
					"linecount" : 2,
					"maxclass" : "comment",
					"numinlets" : 1,
					"numoutlets" : 0,
					"patching_rect" : [ 655.833313, 338.0, 172.0, 40.0 ],
					"presentation_rect" : [ 603.0, 336.666656, 0.0, 0.0 ],
					"style" : "",
					"text" : "you need to subtract 1 for [matrixctrl]",
					"textcolor" : [ 0.784314, 0.145098, 0.023529, 1.0 ]
				}

			}
, 			{
				"box" : 				{
					"arrows" : 1,
					"border" : 3.0,
					"id" : "obj-49",
					"justification" : 1,
					"linecolor" : [ 0.784314, 0.145098, 0.023529, 1.0 ],
					"maxclass" : "live.line",
					"numinlets" : 1,
					"numoutlets" : 0,
					"patching_rect" : [ 602.833313, 417.666656, 51.0, 34.0 ],
					"presentation_rect" : [ 651.666687, 370.333313, 0.0, 0.0 ]
				}

			}
, 			{
				"box" : 				{
					"fontname" : "Lato",
					"fontsize" : 13.924412,
					"id" : "obj-48",
					"linecount" : 2,
					"maxclass" : "comment",
					"numinlets" : 1,
					"numoutlets" : 0,
					"patching_rect" : [ 655.833313, 413.666656, 172.0, 40.0 ],
					"presentation_rect" : [ 690.5, 350.999969, 0.0, 0.0 ],
					"style" : "",
					"text" : "culumn index can be chaged and stored here",
					"textcolor" : [ 0.784314, 0.145098, 0.023529, 1.0 ]
				}

			}
, 			{
				"box" : 				{
					"fontname" : "Lato",
					"fontsize" : 13.924412,
					"id" : "obj-47",
					"linecount" : 4,
					"maxclass" : "comment",
					"numinlets" : 1,
					"numoutlets" : 0,
					"patching_rect" : [ 655.833313, 245.666641, 172.0, 73.0 ],
					"presentation_rect" : [ 630.0, 257.666687, 0.0, 0.0 ],
					"style" : "",
					"text" : "[uzi] to generate column indexes. give uzi an argument to generate the column indexes",
					"textcolor" : [ 0.784314, 0.145098, 0.023529, 1.0 ]
				}

			}
, 			{
				"box" : 				{
					"arrows" : 2,
					"border" : 3.0,
					"id" : "obj-46",
					"justification" : 1,
					"linecolor" : [ 0.784314, 0.145098, 0.023529, 1.0 ],
					"maxclass" : "live.line",
					"numinlets" : 1,
					"numoutlets" : 0,
					"patching_rect" : [ 573.333313, 585.999939, 17.999998, 24.666668 ],
					"presentation_rect" : [ 381.333344, 449.166656, 0.0, 0.0 ]
				}

			}
, 			{
				"box" : 				{
					"fontname" : "Lato",
					"fontsize" : 13.924412,
					"id" : "obj-45",
					"linecount" : 3,
					"maxclass" : "comment",
					"numinlets" : 1,
					"numoutlets" : 0,
					"patching_rect" : [ 693.166626, 636.333313, 162.333344, 57.0 ],
					"presentation_rect" : [ 558.0, 468.333344, 0.0, 0.0 ],
					"style" : "",
					"text" : "last element of message \n0 = off\n1 = on",
					"textcolor" : [ 0.784314, 0.145098, 0.023529, 1.0 ]
				}

			}
, 			{
				"box" : 				{
					"fontname" : "Lato",
					"fontsize" : 13.924412,
					"id" : "obj-44",
					"linecount" : 2,
					"maxclass" : "comment",
					"numinlets" : 1,
					"numoutlets" : 0,
					"patching_rect" : [ 677.333252, 546.0, 162.333344, 40.0 ],
					"presentation_rect" : [ 567.0, 415.0, 0.0, 0.0 ],
					"style" : "",
					"text" : "[gate 2] : choose between on or off",
					"textcolor" : [ 0.784314, 0.145098, 0.023529, 1.0 ]
				}

			}
, 			{
				"box" : 				{
					"fontname" : "Lato",
					"fontsize" : 13.924412,
					"id" : "obj-43",
					"maxclass" : "comment",
					"numinlets" : 1,
					"numoutlets" : 0,
					"patching_rect" : [ 407.166626, 206.0, 309.0, 23.0 ],
					"presentation_rect" : [ 537.666687, 160.333328, 0.0, 0.0 ],
					"style" : "",
					"text" : "objects you need"
				}

			}
, 			{
				"box" : 				{
					"id" : "obj-42",
					"maxclass" : "button",
					"numinlets" : 1,
					"numoutlets" : 1,
					"outlettype" : [ "bang" ],
					"patching_rect" : [ 558.166626, 253.333328, 24.0, 24.0 ],
					"style" : ""
				}

			}
, 			{
				"box" : 				{
					"id" : "obj-40",
					"maxclass" : "newobj",
					"numinlets" : 2,
					"numoutlets" : 1,
					"outlettype" : [ "int" ],
					"patching_rect" : [ 506.499969, 537.666626, 29.5, 22.0 ],
					"style" : "",
					"text" : "+ 1"
				}

			}
, 			{
				"box" : 				{
					"id" : "obj-39",
					"maxclass" : "toggle",
					"numinlets" : 1,
					"numoutlets" : 1,
					"outlettype" : [ "int" ],
					"parameter_enable" : 0,
					"patching_rect" : [ 506.499969, 511.666656, 24.0, 24.0 ],
					"style" : ""
				}

			}
, 			{
				"box" : 				{
					"id" : "obj-37",
					"maxclass" : "number",
					"numinlets" : 1,
					"numoutlets" : 2,
					"outlettype" : [ "", "bang" ],
					"parameter_enable" : 0,
					"patching_rect" : [ 581.833313, 387.666656, 50.0, 22.0 ],
					"style" : ""
				}

			}
, 			{
				"box" : 				{
					"id" : "obj-35",
					"maxclass" : "newobj",
					"numinlets" : 2,
					"numoutlets" : 1,
					"outlettype" : [ "int" ],
					"patching_rect" : [ 571.333313, 423.666656, 29.5, 22.0 ],
					"style" : "",
					"text" : "i"
				}

			}
, 			{
				"box" : 				{
					"id" : "obj-32",
					"maxclass" : "newobj",
					"numinlets" : 1,
					"numoutlets" : 1,
					"outlettype" : [ "" ],
					"patching_rect" : [ 562.666687, 639.666687, 61.0, 22.0 ],
					"style" : "",
					"text" : "append 0"
				}

			}
, 			{
				"box" : 				{
					"id" : "obj-31",
					"maxclass" : "newobj",
					"numinlets" : 2,
					"numoutlets" : 2,
					"outlettype" : [ "", "" ],
					"patching_rect" : [ 573.333313, 549.0, 44.0, 22.0 ],
					"style" : "",
					"text" : "gate 2"
				}

			}
, 			{
				"box" : 				{
					"id" : "obj-30",
					"maxclass" : "newobj",
					"numinlets" : 1,
					"numoutlets" : 1,
					"outlettype" : [ "" ],
					"patching_rect" : [ 562.666687, 671.333313, 61.0, 22.0 ],
					"style" : "",
					"text" : "append 1"
				}

			}
, 			{
				"box" : 				{
					"id" : "obj-29",
					"maxclass" : "newobj",
					"numinlets" : 2,
					"numoutlets" : 1,
					"outlettype" : [ "" ],
					"patching_rect" : [ 561.833313, 477.333344, 39.0, 22.0 ],
					"style" : "",
					"text" : "join 2"
				}

			}
, 			{
				"box" : 				{
					"id" : "obj-28",
					"maxclass" : "newobj",
					"numinlets" : 2,
					"numoutlets" : 1,
					"outlettype" : [ "int" ],
					"patching_rect" : [ 576.0, 347.0, 29.5, 22.0 ],
					"style" : "",
					"text" : "- 1"
				}

			}
, 			{
				"box" : 				{
					"fontname" : "Lato",
					"fontsize" : 13.924412,
					"id" : "obj-24",
					"linecount" : 5,
					"maxclass" : "comment",
					"numinlets" : 1,
					"numoutlets" : 0,
					"patching_rect" : [ 59.0, 152.333328, 309.0, 90.0 ],
					"presentation_rect" : [ 61.0, 160.0, 0.0, 0.0 ],
					"style" : "",
					"text" : "create a subpatch to turn entire columns on or off\nyou should be able to control two parameters:\nthe column index\nwhether the column is to be turned on or off"
				}

			}
, 			{
				"box" : 				{
					"arrows" : 1,
					"border" : 3.0,
					"id" : "obj-21",
					"justification" : 1,
					"linecolor" : [ 0.784314, 0.145098, 0.023529, 1.0 ],
					"maxclass" : "live.line",
					"numinlets" : 1,
					"numoutlets" : 0,
					"patching_rect" : [ 242.333267, 665.0, 51.0, 34.0 ],
					"presentation_rect" : [ 284.0, 255.5, 0.0, 0.0 ]
				}

			}
, 			{
				"box" : 				{
					"fontname" : "Lato",
					"fontsize" : 13.924412,
					"id" : "obj-20",
					"maxclass" : "comment",
					"numinlets" : 1,
					"numoutlets" : 0,
					"patching_rect" : [ 292.333252, 671.0, 45.0, 23.0 ],
					"presentation_rect" : [ 287.0, 231.5, 0.0, 0.0 ],
					"style" : "",
					"text" : "all off",
					"textcolor" : [ 0.784314, 0.145098, 0.023529, 1.0 ]
				}

			}
, 			{
				"box" : 				{
					"id" : "obj-19",
					"maxclass" : "message",
					"numinlets" : 2,
					"numoutlets" : 1,
					"outlettype" : [ "" ],
					"patching_rect" : [ 204.333252, 671.0, 37.0, 22.0 ],
					"presentation_rect" : [ 246.0, 234.0, 0.0, 0.0 ],
					"style" : "",
					"text" : "clear"
				}

			}
, 			{
				"box" : 				{
					"arrows" : 1,
					"border" : 3.0,
					"id" : "obj-18",
					"justification" : 1,
					"linecolor" : [ 0.784314, 0.145098, 0.023529, 1.0 ],
					"maxclass" : "live.line",
					"numinlets" : 1,
					"numoutlets" : 0,
					"patching_rect" : [ 210.333252, 798.0, 51.0, 34.0 ],
					"presentation_rect" : [ 248.0, 362.5, 0.0, 0.0 ]
				}

			}
, 			{
				"box" : 				{
					"fontname" : "Lato",
					"fontsize" : 13.924412,
					"id" : "obj-16",
					"maxclass" : "comment",
					"numinlets" : 1,
					"numoutlets" : 0,
					"patching_rect" : [ 263.333252, 803.5, 103.0, 23.0 ],
					"presentation_rect" : [ 269.0, 364.0, 0.0, 0.0 ],
					"style" : "",
					"text" : "turn cell 4 2 on",
					"textcolor" : [ 0.784314, 0.145098, 0.023529, 1.0 ]
				}

			}
, 			{
				"box" : 				{
					"id" : "obj-15",
					"maxclass" : "message",
					"numinlets" : 2,
					"numoutlets" : 1,
					"outlettype" : [ "" ],
					"patching_rect" : [ 171.333252, 806.0, 37.0, 22.0 ],
					"presentation_rect" : [ 213.0, 369.0, 0.0, 0.0 ],
					"style" : "",
					"text" : "4 2 1"
				}

			}
, 			{
				"box" : 				{
					"fontname" : "Lato",
					"fontsize" : 13.924412,
					"id" : "obj-14",
					"linecount" : 4,
					"maxclass" : "comment",
					"numinlets" : 1,
					"numoutlets" : 0,
					"patching_rect" : [ 28.833252, 585.999939, 276.0, 73.0 ],
					"presentation_rect" : [ 498.0, 454.0, 0.0, 0.0 ],
					"style" : "",
					"text" : "you can turn cells on an off by sending a message\nx y 0 (off)\nx y 1 (on)",
					"textcolor" : [ 0.0, 0.0, 0.0, 1.0 ]
				}

			}
, 			{
				"box" : 				{
					"fontname" : "Lato",
					"fontsize" : 13.924412,
					"id" : "obj-12",
					"maxclass" : "comment",
					"numinlets" : 1,
					"numoutlets" : 0,
					"patching_rect" : [ 456.333252, 850.0, 164.0, 23.0 ],
					"presentation_rect" : [ 498.0, 413.0, 0.0, 0.0 ],
					"style" : "",
					"text" : "matrix dimension 8 by 4",
					"textcolor" : [ 0.784314, 0.145098, 0.023529, 1.0 ]
				}

			}
, 			{
				"box" : 				{
					"fontname" : "Lato",
					"fontsize" : 13.924412,
					"id" : "obj-11",
					"maxclass" : "comment",
					"numinlets" : 1,
					"numoutlets" : 0,
					"patching_rect" : [ 185.833252, 772.0, 104.0, 23.0 ],
					"presentation_rect" : [ 273.0, 333.0, 0.0, 0.0 ],
					"style" : "",
					"text" : "turn cell 0 0 off",
					"textcolor" : [ 0.784314, 0.145098, 0.023529, 1.0 ]
				}

			}
, 			{
				"box" : 				{
					"arrows" : 1,
					"border" : 3.0,
					"id" : "obj-10",
					"justification" : 1,
					"linecolor" : [ 0.784314, 0.145098, 0.023529, 1.0 ],
					"maxclass" : "live.line",
					"numinlets" : 1,
					"numoutlets" : 0,
					"patching_rect" : [ 133.333252, 764.5, 51.0, 34.0 ],
					"presentation_rect" : [ 175.0, 323.5, 0.0, 0.0 ]
				}

			}
, 			{
				"box" : 				{
					"id" : "obj-9",
					"maxclass" : "message",
					"numinlets" : 2,
					"numoutlets" : 1,
					"outlettype" : [ "" ],
					"patching_rect" : [ 94.333252, 772.0, 37.0, 22.0 ],
					"presentation_rect" : [ 136.0, 335.0, 0.0, 0.0 ],
					"style" : "",
					"text" : "0 0 0"
				}

			}
, 			{
				"box" : 				{
					"arrows" : 1,
					"border" : 3.0,
					"id" : "obj-8",
					"justification" : 1,
					"linecolor" : [ 0.784314, 0.145098, 0.023529, 1.0 ],
					"maxclass" : "live.line",
					"numinlets" : 1,
					"numoutlets" : 0,
					"patching_rect" : [ 61.333252, 714.5, 47.0, 34.0 ]
				}

			}
, 			{
				"box" : 				{
					"fontname" : "Lato",
					"fontsize" : 13.924412,
					"id" : "obj-7",
					"maxclass" : "comment",
					"numinlets" : 1,
					"numoutlets" : 0,
					"patching_rect" : [ 107.833244, 722.0, 103.0, 23.0 ],
					"presentation_rect" : [ 186.0, 284.0, 0.0, 0.0 ],
					"style" : "",
					"text" : "turn cell 0 0 on",
					"textcolor" : [ 0.784314, 0.145098, 0.023529, 1.0 ]
				}

			}
, 			{
				"box" : 				{
					"id" : "obj-6",
					"maxclass" : "message",
					"numinlets" : 2,
					"numoutlets" : 1,
					"outlettype" : [ "" ],
					"patching_rect" : [ 22.33325, 722.0, 37.0, 22.0 ],
					"style" : "",
					"text" : "0 0 1"
				}

			}
, 			{
				"box" : 				{
					"id" : "obj-4",
					"maxclass" : "newobj",
					"numinlets" : 2,
					"numoutlets" : 3,
					"outlettype" : [ "bang", "bang", "int" ],
					"patching_rect" : [ 558.166626, 287.666656, 40.0, 22.0 ],
					"style" : "",
					"text" : "uzi"
				}

			}
, 			{
				"box" : 				{
					"fontname" : "Lato",
					"fontsize" : 31.688597,
					"id" : "obj-3",
					"maxclass" : "comment",
					"numinlets" : 1,
					"numoutlets" : 0,
					"patching_rect" : [ 78.0, 45.0, 315.0, 45.0 ],
					"style" : "",
					"text" : "challenge #2"
				}

			}
, 			{
				"box" : 				{
					"id" : "obj-1",
					"maxclass" : "matrixctrl",
					"numinlets" : 1,
					"numoutlets" : 2,
					"outlettype" : [ "list", "list" ],
					"parameter_enable" : 0,
					"patching_rect" : [ 84.333252, 842.0, 367.0, 242.0 ],
					"style" : ""
				}

			}
 ],
		"lines" : [ 			{
				"patchline" : 				{
					"destination" : [ "obj-1", 0 ],
					"source" : [ "obj-15", 0 ]
				}

			}
, 			{
				"patchline" : 				{
					"destination" : [ "obj-1", 0 ],
					"source" : [ "obj-19", 0 ]
				}

			}
, 			{
				"patchline" : 				{
					"destination" : [ "obj-35", 1 ],
					"source" : [ "obj-37", 0 ]
				}

			}
, 			{
				"patchline" : 				{
					"destination" : [ "obj-40", 0 ],
					"source" : [ "obj-39", 0 ]
				}

			}
, 			{
				"patchline" : 				{
					"destination" : [ "obj-31", 0 ],
					"source" : [ "obj-40", 0 ]
				}

			}
, 			{
				"patchline" : 				{
					"destination" : [ "obj-4", 0 ],
					"source" : [ "obj-42", 0 ]
				}

			}
, 			{
				"patchline" : 				{
					"destination" : [ "obj-1", 0 ],
					"source" : [ "obj-6", 0 ]
				}

			}
, 			{
				"patchline" : 				{
					"destination" : [ "obj-1", 0 ],
					"source" : [ "obj-9", 0 ]
				}

			}
 ],
		"dependency_cache" : [  ],
		"autosave" : 0
	}

}
